<?xml version="1.0" encoding="utf-8"?>
<!-- Generator: Adobe Illustrator 16.0.0, SVG Export Plug-In . SVG Version: 6.00 Build 0)  -->
<!DOCTYPE svg PUBLIC "-//W3C//DTD SVG 1.1//EN" "http://www.w3.org/Graphics/SVG/1.1/DTD/svg11.dtd">
<svg version="1.1" xmlns="http://www.w3.org/2000/svg" xmlns:xlink="http://www.w3.org/1999/xlink" x="0px" y="0px" width="16px"
	 height="16px" viewBox="0 0 16 16" enable-background="new 0 0 16 16" xml:space="preserve">
<g id="Layer_2" display="none">
	<rect x="-29.5" y="-31.5" display="inline" fill="#4B9C45" width="603" height="622"/>
</g>
<g id="Layer_1">
	<path opacity="0.5" enable-background="new    " d="M8,0C3.582,0,0,3.582,0,8c0,4.417,3.582,8,8,8c4.418,0,8-3.583,8-8
		C16,3.582,12.418,0,8,0z M6.705,12.736c-0.521,0-0.882-0.246-0.882-0.794c0-0.695,0.492-1.881,0.594-2.126l1.012-2.547
		c0.101-0.26-0.029-0.39-0.145-0.39c-0.535,0-1.23,1.259-1.49,1.259c-0.102,0-0.188-0.102-0.188-0.188
		c0-0.262,0.636-0.869,0.824-1.056c0.579-0.549,1.331-0.971,2.171-0.971c0.622,0,1.287,0.377,0.767,1.781l-1.042,2.82
		c-0.086,0.217-0.245,0.579-0.245,0.811c0,0.1,0.057,0.202,0.173,0.202c0.434,0,1.23-1.231,1.433-1.231
		c0.072,0,0.173,0.088,0.173,0.218C9.859,10.943,8.167,12.736,6.705,12.736z M9.194,5.404c-0.593,0-0.985-0.392-0.985-0.985
		c0-0.636,0.549-1.156,1.187-1.156c0.579,0,0.998,0.391,0.998,0.982C10.394,4.912,9.845,5.404,9.194,5.404z"/>
</g>
</svg>
